<svg id="Capa_1" data-name="Capa 1" xmlns="http://www.w3.org/2000/svg" viewBox="0 0 302 215"><defs><style>.cls-1{fill:#1d1d1b;}.cls-2{fill:#f39200;}</style></defs><path class="cls-1" d="M174.32,6V30.06q0,12.56-1,18a14.56,14.56,0,0,1-5.83,9.12q-4.83,3.72-14.36,3.72-9.37,0-14.79-3.93a17.08,17.08,0,0,1-6.84-10.43q-.83-4-.83-17.68V6H108.31V28q0,17.74,2.19,26.84a28.46,28.46,0,0,0,6.28,11.72,34.52,34.52,0,0,0,13,9.1q8.2,3.5,24.09,3.49,13.15,0,21.33-3.21a33.92,33.92,0,0,0,13-8.62A29.25,29.25,0,0,0,194.89,54q1.81-7.86,1.81-26.91V6Z"/><path class="cls-2" d="M174.32,107.93V83.84q0-12.56-1-18a14.58,14.58,0,0,0-5.83-9.13Q162.68,53,153.15,53q-9.37,0-14.79,3.94a17.05,17.05,0,0,0-6.84,10.42q-.83,4-.83,17.68v22.86H108.31v-22q0-17.76,2.19-26.85a28.46,28.46,0,0,1,6.28-11.72,34.4,34.4,0,0,1,13-9.09q8.2-3.51,24.09-3.5,13.15,0,21.33,3.21a33.92,33.92,0,0,1,13,8.62,29.3,29.3,0,0,1,6.69,13.28q1.81,7.86,1.81,26.91v21.13Z"/><path class="cls-1" d="M8,125.81c23.94-1.24,47.88-1.89,71.82-2.33,12-.28,23.94-.34,35.91-.5l35.91-.17,35.91.16c12,.17,23.94.22,35.91.5,23.94.44,47.88,1.09,71.82,2.34-23.94,1.25-47.88,1.9-71.82,2.34-12,.28-23.94.33-35.91.5l-35.91.16-35.91-.17c-12-.16-23.94-.22-35.91-.5C55.88,127.7,31.94,127.05,8,125.81Z"/><path class="cls-1" d="M8,204c23.94-1.24,47.88-1.89,71.82-2.33,12-.28,23.94-.34,35.91-.5l35.91-.17,35.91.16c12,.17,23.94.22,35.91.5,23.94.44,47.88,1.09,71.82,2.34-23.94,1.25-47.88,1.9-71.82,2.34-12,.28-23.94.33-35.91.5l-35.91.16-35.91-.17c-12-.16-23.94-.22-35.91-.5C55.88,205.89,31.94,205.24,8,204Z"/><path class="cls-1" d="M153.6,60.82c-.17,0-.28,0-.45,0q-9.37,0-14.79-3.93a17.08,17.08,0,0,1-6.84-10.43q-.83-4-.83-17.68V6H108.31V28q0,17.74,2.19,26.84a28.46,28.46,0,0,0,6.28,11.72,34.52,34.52,0,0,0,13,9.1c5.43,2.31,13.4,3.47,23.86,3.48Z"/><path class="cls-1" d="M23.48,183.69V146.37h4.94V161.7h19.4V146.37h4.93v37.32H47.82V166.1H28.42v17.59Z"/><path class="cls-1" d="M61.82,183.69V146.37h4.93v37.32Z"/><path class="cls-1" d="M75.46,183.69V146.37H88.31a30.8,30.8,0,0,1,6.64.54,12.63,12.63,0,0,1,5.48,2.67,15.17,15.17,0,0,1,4.41,6.38,24.88,24.88,0,0,1,1.47,8.87,25.77,25.77,0,0,1-1,7.53,18.27,18.27,0,0,1-2.54,5.43,13.48,13.48,0,0,1-3.4,3.39,13.79,13.79,0,0,1-4.45,1.87,25.67,25.67,0,0,1-6,.64Zm4.94-4.41h8a19.64,19.64,0,0,0,5.79-.68,8.33,8.33,0,0,0,3.35-1.94,11.83,11.83,0,0,0,2.74-4.72,23.18,23.18,0,0,0,1-7.19q0-5.85-1.93-9a9.64,9.64,0,0,0-4.67-4.21,19.25,19.25,0,0,0-6.38-.76H80.4Z"/><path class="cls-1" d="M113.18,183.69V146.37h16.54a22,22,0,0,1,7.59,1,8.3,8.3,0,0,1,4.15,3.55,10.63,10.63,0,0,1,1.55,5.62,9.42,9.42,0,0,1-2.57,6.7c-1.72,1.81-4.36,3-7.94,3.46a13,13,0,0,1,3,1.86,25.43,25.43,0,0,1,4.1,5l6.49,10.16h-6.21l-4.94-7.77q-2.16-3.36-3.56-5.14a10.91,10.91,0,0,0-2.51-2.49,7.07,7.07,0,0,0-2.25-1,14.65,14.65,0,0,0-2.75-.18h-5.72v16.57Zm4.94-20.85h10.61a15.78,15.78,0,0,0,5.29-.7,5.59,5.59,0,0,0,2.9-2.24,6,6,0,0,0,1-3.35A5.57,5.57,0,0,0,136,152.2q-1.94-1.69-6.07-1.7H118.12Z"/><path class="cls-1" d="M146.65,183.69,161,146.37h5.32l15.27,37.32h-5.63l-4.35-11.3H156l-4.1,11.3Zm10.76-15.33h12.65L166.17,158q-1.78-4.71-2.65-7.74a46.28,46.28,0,0,1-2,7.13Z"/><path class="cls-1" d="M210,146.37h4.94v21.56a25.51,25.51,0,0,1-1.28,8.94,10.93,10.93,0,0,1-4.59,5.38,16.31,16.31,0,0,1-8.72,2.07,18,18,0,0,1-8.58-1.8,10.36,10.36,0,0,1-4.76-5.23,25,25,0,0,1-1.42-9.36V146.37h4.94v21.54a21,21,0,0,0,.9,7.16,6.83,6.83,0,0,0,3.11,3.55,10.76,10.76,0,0,0,5.38,1.25q5.45,0,7.76-2.47t2.32-9.49Z"/><path class="cls-1" d="M223,183.69V146.37h4.94v32.91h18.38v4.41Z"/><path class="cls-1" d="M253,183.69V146.37h4.93v37.32Z"/><path class="cls-1" d="M262.53,183.69l14.33-37.32h5.32l15.27,37.32h-5.62l-4.36-11.3h-15.6l-4.1,11.3Zm10.77-15.33H286L282.05,158c-1.18-3.14-2.07-5.72-2.64-7.74a48.64,48.64,0,0,1-2,7.13Z"/></svg>