<?xml version="1.0" encoding="UTF-8" standalone="no"?>
<svg
   id="Capa_1"
   data-name="Capa 1"
   viewBox="0 0 110 110"
   version="1.1"
   sodipodi:docname="estadodelaire.svg"
   width="110"
   height="110"
   inkscape:version="1.2.2 (b0a8486541, 2022-12-01)"
   xmlns:inkscape="http://www.inkscape.org/namespaces/inkscape"
   xmlns:sodipodi="http://sodipodi.sourceforge.net/DTD/sodipodi-0.dtd"
   xmlns="http://www.w3.org/2000/svg"
   xmlns:svg="http://www.w3.org/2000/svg">
  <sodipodi:namedview
     id="namedview35"
     pagecolor="#ffffff"
     bordercolor="#666666"
     borderopacity="1.0"
     inkscape:showpageshadow="2"
     inkscape:pageopacity="0.0"
     inkscape:pagecheckerboard="0"
     inkscape:deskcolor="#d1d1d1"
     showgrid="false"
     inkscape:zoom="1.8418605"
     inkscape:cx="8.415404"
     inkscape:cy="101.52778"
     inkscape:window-width="1920"
     inkscape:window-height="992"
     inkscape:window-x="0"
     inkscape:window-y="0"
     inkscape:window-maximized="1"
     inkscape:current-layer="Capa_1" />
  <defs
     id="defs4">
    <style
       id="style2">.cls-1{fill:#1d1d1b;}.cls-2{fill:#f39200;}</style>
  </defs>
  <g
     id="g328"
     transform="translate(10.858586,4.3434343)">
    <path
       class="cls-1"
       d="m 66.01,0 v 24.06 q 0,12.56 -1,18 a 14.56,14.56 0 0 1 -5.83,9.12 q -4.83,3.72 -14.36,3.72 -9.37,0 -14.79,-3.93 A 17.08,17.08 0 0 1 23.19,40.54 q -0.83,-4 -0.83,-17.68 V 0 H 0 v 22 q 0,17.74 2.19,26.84 a 28.46,28.46 0 0 0 6.28,11.72 34.52,34.52 0 0 0 13,9.1 q 8.2,3.5 24.09,3.49 13.15,0 21.33,-3.21 a 33.92,33.92 0 0 0 13,-8.62 A 29.25,29.25 0 0 0 86.58,48 q 1.81,-7.86 1.81,-26.91 V 0 Z"
       id="path6" />
    <path
       class="cls-2"
       d="M 66.01,101.93 V 77.84 q 0,-12.56 -1,-18 A 14.58,14.58 0 0 0 59.18,50.71 Q 54.37,47 44.84,47 35.47,47 30.05,50.94 a 17.05,17.05 0 0 0 -6.84,10.42 q -0.83,4 -0.83,17.68 V 101.9 H 0 v -22 Q 0,62.14 2.19,53.05 a 28.46,28.46 0 0 1 6.28,-11.72 34.4,34.4 0 0 1 13,-9.09 q 8.2,-3.51 24.09,-3.5 13.15,0 21.33,3.21 a 33.92,33.92 0 0 1 13,8.62 29.3,29.3 0 0 1 6.69,13.28 q 1.81,7.86 1.81,26.91 v 21.13 z"
       id="path8" />
    <path
       class="cls-1"
       d="m 45.29,54.82 c -0.17,0 -0.28,0 -0.45,0 q -9.37,0 -14.79,-3.93 A 17.08,17.08 0 0 1 23.21,40.46 q -0.83,-4 -0.83,-17.68 V 0 H 0 v 22 q 0,17.74 2.19,26.84 a 28.46,28.46 0 0 0 6.28,11.72 34.52,34.52 0 0 0 13,9.1 c 5.43,2.31 13.4,3.47 23.86,3.48 z"
       id="path14" />
  </g>
</svg>
