<?xml version="1.0" encoding="UTF-8" standalone="no"?>
<svg
   id="Capa_1"
   data-name="Capa 1"
   viewBox="0 0 397.09558 87.067"
   version="1.1"
   sodipodi:docname="estadodelaire-wide.svg"
   inkscape:version="1.2.2 (b0a8486541, 2022-12-01)"
   width="397.09558"
   height="87.067001"
   xmlns:inkscape="http://www.inkscape.org/namespaces/inkscape"
   xmlns:sodipodi="http://sodipodi.sourceforge.net/DTD/sodipodi-0.dtd"
   xmlns="http://www.w3.org/2000/svg"
   xmlns:svg="http://www.w3.org/2000/svg">
  <sodipodi:namedview
     id="namedview59"
     pagecolor="#ffffff"
     bordercolor="#666666"
     borderopacity="1.0"
     inkscape:showpageshadow="2"
     inkscape:pageopacity="0.0"
     inkscape:pagecheckerboard="0"
     inkscape:deskcolor="#d1d1d1"
     showgrid="false"
     inkscape:zoom="1.8600917"
     inkscape:cx="148.11097"
     inkscape:cy="36.019729"
     inkscape:window-width="1920"
     inkscape:window-height="992"
     inkscape:window-x="0"
     inkscape:window-y="0"
     inkscape:window-maximized="1"
     inkscape:current-layer="Capa_1" />
  <defs
     id="defs12">
    <style
       id="style2">.cls-1{fill:none;}.cls-2,.cls-3{fill:#1d1d1b;}.cls-3{stroke:#1d1d1b;stroke-miterlimit:10;}.cls-4{clip-path:url(#clip-path);}.cls-5{fill:url(#Degradado_sin_nombre_3);}.cls-6,.cls-9{fill:#f9b233;}.cls-7,.cls-8{fill:#e94e1b;}.cls-8{opacity:0.6;}.cls-9{opacity:0.81;}.cls-10{fill:#f39200;}.cls-11{fill:#f7d01f;}</style>
    <clipPath
       id="clip-path">
      <path
         class="cls-1"
         d="M 85.32,120.93 V 96.84 q 0,-12.56 -1,-18 A 14.58,14.58 0 0 0 78.49,69.71 Q 73.68,66 64.15,66 54.77,66 49.36,70 a 17.05,17.05 0 0 0 -6.84,10.42 q -0.83,4 -0.83,17.68 v 22.86 H 19.31 v -22 q 0,-17.76 2.19,-26.85 a 28.46,28.46 0 0 1 6.28,-11.72 34.4,34.4 0 0 1 13,-9.09 Q 48.98,47.79 64.87,47.8 78,47.78 86.16,51 a 33.92,33.92 0 0 1 13,8.62 29.3,29.3 0 0 1 6.69,13.28 q 1.81,7.86 1.81,26.91 v 21.13 z"
         id="path4" />
    </clipPath>
    <linearGradient
       id="Degradado_sin_nombre_3"
       x1="15"
       y1="92"
       x2="171"
       y2="92"
       gradientUnits="userSpaceOnUse">
      <stop
         offset="0"
         stop-color="#f39200"
         id="stop7" />
      <stop
         offset="1"
         stop-color="#fcea10"
         id="stop9" />
    </linearGradient>
  </defs>
  <path
     class="cls-2"
     d="m 103.12588,4.6128237 c 23.94,-1.24 47.88,-1.89 71.82,-2.33 12,-0.28 23.94,-0.34 35.91,-0.5 l 35.91,-0.17 35.91,0.16 c 12,0.17 23.94,0.22 35.91,0.5 23.94,0.44 47.88,1.09 71.82,2.34 -23.94,1.25 -47.88,1.9 -71.82,2.34 -12,0.28 -23.94,0.33 -35.91,0.5 l -35.91,0.16 -35.91,-0.17 c -12,-0.16 -23.94,-0.22 -35.91,-0.5 -23.94,-0.44 -47.88,-1.09 -71.82,-2.33 z"
     id="path14" />
  <path
     class="cls-2"
     d="m 103.12588,82.802824 c 23.94,-1.24 47.88,-1.89 71.82,-2.33 12,-0.28 23.94,-0.34 35.91,-0.5 l 35.91,-0.17 35.91,0.16 c 12,0.17 23.94,0.22 35.91,0.5 23.94,0.44 47.88,1.09 71.82,2.34 -23.94,1.25 -47.88,1.9 -71.82,2.34 -12,0.28 -23.94,0.33 -35.91,0.5 l -35.91,0.16 -35.91,-0.17 c -12,-0.16 -23.94,-0.22 -35.91,-0.5 -23.94,-0.44 -47.88,-1.09 -71.82,-2.33 z"
     id="path16" />
  <path
     class="cls-2"
     d="m 118.60588,62.492824 v -37.32 h 4.94 v 15.33 h 19.4 v -15.33 h 4.93 v 37.32 h -4.93 v -17.59 h -19.4 v 17.59 z"
     id="path18" />
  <path
     class="cls-2"
     d="m 156.94588,62.492824 v -37.32 h 4.93 v 37.32 z"
     id="path20" />
  <path
     class="cls-2"
     d="m 170.58588,62.492824 v -37.32 h 12.85 a 30.8,30.8 0 0 1 6.64,0.54 12.63,12.63 0 0 1 5.48,2.67 15.17,15.17 0 0 1 4.41,6.42 24.88,24.88 0 0 1 1.47,8.87 25.77,25.77 0 0 1 -1,7.53 18.27,18.27 0 0 1 -2.54,5.43 13.48,13.48 0 0 1 -3.4,3.39 13.79,13.79 0 0 1 -4.45,1.87 25.67,25.67 0 0 1 -6,0.64 z m 4.94,-4.41 h 8 a 19.64,19.64 0 0 0 5.79,-0.68 8.33,8.33 0 0 0 3.35,-1.94 11.83,11.83 0 0 0 2.74,-4.72 23.18,23.18 0 0 0 1,-7.19 q 0,-5.85 -1.93,-9 a 9.64,9.64 0 0 0 -4.67,-4.21 19.25,19.25 0 0 0 -6.38,-0.76 h -7.9 z"
     id="path22" />
  <path
     class="cls-2"
     d="m 208.30588,62.492824 v -37.32 h 16.54 a 22,22 0 0 1 7.59,1 8.3,8.3 0 0 1 4.15,3.55 10.63,10.63 0 0 1 1.54,5.63 9.42,9.42 0 0 1 -2.57,6.7 c -1.72,1.81 -4.36,3 -7.94,3.46 a 13,13 0 0 1 3,1.86 25.43,25.43 0 0 1 4.1,5 l 6.49,10.16 h -6.21 l -4.94,-7.77 q -2.16,-3.36 -3.56,-5.14 a 10.91,10.91 0 0 0 -2.51,-2.49 7.34,7.34 0 0 0 -2.25,-1 15.82,15.82 0 0 0 -2.75,-0.17 h -5.72 v 16.53 z m 4.94,-20.85 h 10.61 a 15.78,15.78 0 0 0 5.29,-0.7 5.59,5.59 0 0 0 2.9,-2.24 6,6 0 0 0 1,-3.35 5.57,5.57 0 0 0 -1.92,-4.35 q -1.94,-1.7 -6.07,-1.7 h -11.81 z"
     id="path24" />
  <path
     class="cls-2"
     d="m 241.77588,62.492824 14.35,-37.32 h 5.32 l 15.27,37.32 h -5.63 l -4.35,-11.3 h -15.61 l -4.1,11.3 z m 10.76,-15.33 h 12.65 l -3.89,-10.36 q -1.79,-4.71 -2.65,-7.74 a 46.28,46.28 0 0 1 -2,7.13 z"
     id="path26" />
  <path
     class="cls-2"
     d="m 305.12588,25.172824 h 4.94 v 21.56 a 25.51,25.51 0 0 1 -1.28,8.94 10.93,10.93 0 0 1 -4.59,5.38 16.31,16.31 0 0 1 -8.72,2.07 18,18 0 0 1 -8.58,-1.8 10.36,10.36 0 0 1 -4.77,-5.23 25,25 0 0 1 -1.42,-9.36 v -21.56 h 4.94 v 21.54 a 21,21 0 0 0 0.9,7.16 6.83,6.83 0 0 0 3.11,3.55 10.76,10.76 0 0 0 5.38,1.25 q 5.44,0 7.76,-2.47 2.32,-2.47 2.33,-9.49 z"
     id="path28" />
  <path
     class="cls-2"
     d="m 318.12588,62.492824 v -37.32 h 4.94 v 32.91 h 18.38 v 4.41 z"
     id="path30" />
  <path
     class="cls-2"
     d="m 348.12588,62.492824 v -37.32 h 4.93 v 37.32 z"
     id="path32" />
  <path
     class="cls-2"
     d="m 357.65588,62.492824 14.33,-37.32 h 5.32 l 15.27,37.32 h -5.62 l -4.36,-11.3 h -15.6 l -4.1,11.3 z m 10.77,-15.33 h 12.7 l -3.95,-10.36 c -1.18,-3.14 -2.07,-5.72 -2.64,-7.74 a 48.64,48.64 0 0 1 -2,7.13 z"
     id="path34" />
  <g
     id="g373"
     transform="matrix(0.83761704,0,0,0.75339087,-7.1538507,-10.657102)">
    <path
       class="cls-3"
       d="m 85.32,19 v 24.06 q 0,12.55 -1,18 a 14.56,14.56 0 0 1 -5.83,9.12 q -4.83,3.72 -14.36,3.72 -9.38,0 -14.79,-3.93 A 17.08,17.08 0 0 1 42.5,59.54 q -0.83,-4 -0.83,-17.68 V 19 H 19.31 v 22 q 0,17.74 2.19,26.84 a 28.46,28.46 0 0 0 6.28,11.72 34.52,34.52 0 0 0 13,9.1 q 8.2,3.5 24.09,3.49 13.15,0 21.33,-3.21 a 33.92,33.92 0 0 0 13,-8.62 29.25,29.25 0 0 0 6.69,-13.32 q 1.81,-7.86 1.81,-26.91 V 19 Z"
       id="path36" />
    <g
       class="cls-4"
       clip-path="url(#clip-path)"
       id="g54">
      <rect
         class="cls-5"
         x="15"
         y="33"
         width="156"
         height="118"
         id="rect38"
         style="fill:url(#Degradado_sin_nombre_3)" />
      <polyline
         class="cls-6"
         points="17.64 60 58.63 42 17.64 34"
         id="polyline40" />
      <polyline
         class="cls-7"
         points="106.86 130.57 114.96 85.92 66.14 109.47 52.45 112.52"
         id="polyline42" />
      <polyline
         class="cls-8"
         points="29.4 94.28 87.16 91.89 59.77 53.63 20.5 63.74 -4.24 102.35"
         id="polyline44" />
      <polyline
         class="cls-6"
         points="41 98 83.87 128.38 55.51 135.49"
         id="polyline46" />
      <polygon
         class="cls-9"
         points="109.59,113.53 75.74,84.02 80.95,71.04 140.37,56.03 "
         id="polygon48" />
      <polyline
         class="cls-10"
         points="34 37 128.88 37 51.42 92.46"
         id="polyline50" />
      <polygon
         class="cls-11"
         points="8.93,98.31 57.56,115.95 40.8,87.97 "
         id="polygon52" />
    </g>
    <path
       class="cls-2"
       d="m 64.6,73.82 c -0.17,0 -0.28,0.05 -0.45,0.05 q -9.38,0 -14.79,-3.93 A 17.08,17.08 0 0 1 42.52,59.51 q -0.83,-4 -0.83,-17.68 V 19 H 19.31 v 22 q 0,17.74 2.19,26.84 a 28.46,28.46 0 0 0 6.28,11.72 34.52,34.52 0 0 0 13,9.1 c 5.43,2.31 13.4,3.47 23.86,3.48 z"
       id="path56" />
  </g>
</svg>
