<svg xmlns="http://www.w3.org/2000/svg" viewBox="0 0 900 830" width="900" font-family="system-ui, -apple-system, 'Segoe UI', Roboto, sans-serif" role="img" aria-label="Yuneta performance, release after release">
<title>Yuneta performance, release after release</title>
<style>
  .bg { fill: #fcfcfb; stroke: rgba(11,11,11,0.10); }
  .t { fill: #0b0b0b; font-size: 15px; font-weight: 600; }
  .l { fill: #0b0b0b; font-size: 12.5px; }
  .m { fill: #6f6d68; font-size: 11.5px; }
  .g { fill: #6f6d68; font-size: 11px; font-weight: 700; letter-spacing: 0.06em; }
  .v { fill: #52514e; font-size: 12px; }
  .grid { stroke: #e1e0d9; stroke-width: 1; }
  .zero { stroke: #a3a198; stroke-width: 1; }
  .gain { fill: #2a78d6; } .price { fill: #e34948; } .noise { fill: #b9b7ae; }
  .cur { fill: #2a78d6; } .prev { fill: #9b9991; }
  .curl { stroke: #2a78d6; stroke-width: 2; fill: none; }
  .w { stroke: #52514e; stroke-width: 1.5; }
  @media (prefers-color-scheme: dark) {
    .bg { fill: #1a1a19; stroke: rgba(255,255,255,0.10); }
    .t, .l { fill: #ffffff; } .m, .g { fill: #a3a198; } .v { fill: #c3c2b7; }
    .grid { stroke: #2c2c2a; } .zero { stroke: #5c5b56; }
    .gain, .cur { fill: #3987e5; } .price { fill: #e66767; } .noise { fill: #5c5b56; } .prev { fill: #7a786f; }
    .curl { stroke: #3987e5; } .w { stroke: #c3c2b7; }
  }
</style>
<rect class="bg" x="0.5" y="0.5" width="899" height="829" rx="10"/>
<text class="t" x="20" y="30">Yuneta performance, release after release</text>
<text class="m" x="20" y="48">one panel per figure, each on its own scale from zero &#183; the A/B figures of each release report (7.25.4 is the baseline of 7.25.5)</text>
<text class="l" x="20" y="80">Appends per second</text>
<line class="grid" x1="30" x2="430" y1="176" y2="176"/>
<polyline class="curl" points="30.0,108.5 117.5,108.0 205.0,106.4 292.5,106.7 380.0,107.2"/>
<circle class="prev" cx="30.0" cy="108.5" r="4.5" stroke-width="2"><title>7.25.4: 220,120</title></circle>
<text class="v" x="38.0" y="100.5" text-anchor="start">220,120</text>
<text class="m" x="30.0" y="192" text-anchor="middle">7.25.4</text>
<circle class="prev" cx="117.5" cy="108.0" r="4.5" stroke-width="2"><title>7.25.5: 221,588</title></circle>
<text class="v" x="125.5" y="100.0" text-anchor="start">221,588</text>
<text class="m" x="117.5" y="192" text-anchor="middle">7.25.5</text>
<circle class="prev" cx="205.0" cy="106.4" r="4.5" stroke-width="2"><title>7.25.20: 226,720</title></circle>
<text class="v" x="213.0" y="98.4" text-anchor="start">226,720</text>
<text class="m" x="205.0" y="192" text-anchor="middle">7.25.20</text>
<circle class="prev" cx="292.5" cy="106.7" r="4.5" stroke-width="2"><title>7.25.21: 225,883</title></circle>
<text class="v" x="300.5" y="98.7" text-anchor="start">225,883</text>
<text class="m" x="292.5" y="192" text-anchor="middle">7.25.21</text>
<circle class="cur" cx="380.0" cy="107.2" r="4.5" stroke-width="2"><title>7.25.22: 224,185</title></circle>
<text class="v" x="388.0" y="111.2" text-anchor="start">224,185</text>
<text class="m" x="380.0" y="192" text-anchor="middle">7.25.22</text>
<text class="l" x="450" y="80">Open a store as master (ms)</text>
<line class="grid" x1="460" x2="860" y1="176" y2="176"/>
<polyline class="curl" points="460.0,106.4 547.5,115.2 635.0,117.2 722.5,114.4 810.0,116.2"/>
<circle class="prev" cx="460.0" cy="106.4" r="4.5" stroke-width="2"><title>7.25.4: 92.50</title></circle>
<text class="v" x="468.0" y="98.4" text-anchor="start">92.50</text>
<text class="m" x="460.0" y="192" text-anchor="middle">7.25.4</text>
<circle class="prev" cx="547.5" cy="115.2" r="4.5" stroke-width="2"><title>7.25.5: 80.80</title></circle>
<text class="v" x="555.5" y="107.2" text-anchor="start">80.80</text>
<text class="m" x="547.5" y="192" text-anchor="middle">7.25.5</text>
<circle class="prev" cx="635.0" cy="117.2" r="4.5" stroke-width="2"><title>7.25.20: 78.18</title></circle>
<text class="v" x="643.0" y="109.2" text-anchor="start">78.18</text>
<text class="m" x="635.0" y="192" text-anchor="middle">7.25.20</text>
<circle class="prev" cx="722.5" cy="114.4" r="4.5" stroke-width="2"><title>7.25.21: 81.89</title></circle>
<text class="v" x="730.5" y="106.4" text-anchor="start">81.89</text>
<text class="m" x="722.5" y="192" text-anchor="middle">7.25.21</text>
<circle class="cur" cx="810.0" cy="116.2" r="4.5" stroke-width="2"><title>7.25.22: 79.58</title></circle>
<text class="v" x="818.0" y="120.2" text-anchor="start">79.58</text>
<text class="m" x="810.0" y="192" text-anchor="middle">7.25.22</text>
<text class="l" x="20" y="230">tm query of one minute (ms)</text>
<line class="grid" x1="30" x2="430" y1="326" y2="326"/>
<polyline class="curl" points="30.0,256.4 117.5,285.5 205.0,285.7 292.5,284.1 380.0,285.1"/>
<circle class="prev" cx="30.0" cy="256.4" r="4.5" stroke-width="2"><title>7.25.4: 12.70</title></circle>
<text class="v" x="38.0" y="248.4" text-anchor="start">12.70</text>
<text class="m" x="30.0" y="342" text-anchor="middle">7.25.4</text>
<circle class="prev" cx="117.5" cy="285.5" r="4.5" stroke-width="2"><title>7.25.5: 7.40</title></circle>
<text class="v" x="125.5" y="277.5" text-anchor="start">7.40</text>
<text class="m" x="117.5" y="342" text-anchor="middle">7.25.5</text>
<circle class="prev" cx="205.0" cy="285.7" r="4.5" stroke-width="2"><title>7.25.20: 7.35</title></circle>
<text class="v" x="213.0" y="277.7" text-anchor="start">7.35</text>
<text class="m" x="205.0" y="342" text-anchor="middle">7.25.20</text>
<circle class="prev" cx="292.5" cy="284.1" r="4.5" stroke-width="2"><title>7.25.21: 7.66</title></circle>
<text class="v" x="300.5" y="276.1" text-anchor="start">7.66</text>
<text class="m" x="292.5" y="342" text-anchor="middle">7.25.21</text>
<circle class="cur" cx="380.0" cy="285.1" r="4.5" stroke-width="2"><title>7.25.22: 7.47</title></circle>
<text class="v" x="388.0" y="289.1" text-anchor="start">7.47</text>
<text class="m" x="380.0" y="342" text-anchor="middle">7.25.22</text>
<text class="l" x="450" y="230">treedb update in memory (us)</text>
<line class="grid" x1="460" x2="860" y1="326" y2="326"/>
<polyline class="curl" points="460.0,256.4 547.5,274.2 635.0,284.9 722.5,284.8 810.0,283.2"/>
<circle class="prev" cx="460.0" cy="256.4" r="4.5" stroke-width="2"><title>7.25.4: 3.92</title></circle>
<text class="v" x="468.0" y="248.4" text-anchor="start">3.92</text>
<text class="m" x="460.0" y="342" text-anchor="middle">7.25.4</text>
<circle class="prev" cx="547.5" cy="274.2" r="4.5" stroke-width="2"><title>7.25.5: 2.92</title></circle>
<text class="v" x="555.5" y="266.2" text-anchor="start">2.92</text>
<text class="m" x="547.5" y="342" text-anchor="middle">7.25.5</text>
<circle class="prev" cx="635.0" cy="284.9" r="4.5" stroke-width="2"><title>7.25.20: 2.32</title></circle>
<text class="v" x="643.0" y="276.9" text-anchor="start">2.32</text>
<text class="m" x="635.0" y="342" text-anchor="middle">7.25.20</text>
<circle class="prev" cx="722.5" cy="284.8" r="4.5" stroke-width="2"><title>7.25.21: 2.32</title></circle>
<text class="v" x="730.5" y="276.8" text-anchor="start">2.32</text>
<text class="m" x="722.5" y="342" text-anchor="middle">7.25.21</text>
<circle class="cur" cx="810.0" cy="283.2" r="4.5" stroke-width="2"><title>7.25.22: 2.41</title></circle>
<text class="v" x="818.0" y="287.2" text-anchor="start">2.41</text>
<text class="m" x="810.0" y="342" text-anchor="middle">7.25.22</text>
<text class="l" x="20" y="380">treedb update, saved (us)</text>
<line class="grid" x1="30" x2="430" y1="476" y2="476"/>
<polyline class="curl" points="30.0,406.4 117.5,412.0 205.0,430.6 292.5,430.0 380.0,430.1"/>
<circle class="prev" cx="30.0" cy="406.4" r="4.5" stroke-width="2"><title>7.25.4: 11.75</title></circle>
<text class="v" x="38.0" y="398.4" text-anchor="start">11.75</text>
<text class="m" x="30.0" y="492" text-anchor="middle">7.25.4</text>
<circle class="prev" cx="117.5" cy="412.0" r="4.5" stroke-width="2"><title>7.25.5: 10.81</title></circle>
<text class="v" x="125.5" y="404.0" text-anchor="start">10.81</text>
<text class="m" x="117.5" y="492" text-anchor="middle">7.25.5</text>
<circle class="prev" cx="205.0" cy="430.6" r="4.5" stroke-width="2"><title>7.25.20: 7.66</title></circle>
<text class="v" x="213.0" y="422.6" text-anchor="start">7.66</text>
<text class="m" x="205.0" y="492" text-anchor="middle">7.25.20</text>
<circle class="prev" cx="292.5" cy="430.0" r="4.5" stroke-width="2"><title>7.25.21: 7.77</title></circle>
<text class="v" x="300.5" y="422.0" text-anchor="start">7.77</text>
<text class="m" x="292.5" y="492" text-anchor="middle">7.25.21</text>
<circle class="cur" cx="380.0" cy="430.1" r="4.5" stroke-width="2"><title>7.25.22: 7.75</title></circle>
<text class="v" x="388.0" y="434.1" text-anchor="start">7.75</text>
<text class="m" x="380.0" y="492" text-anchor="middle">7.25.22</text>
<text class="l" x="450" y="380">treedb link / unlink (us)</text>
<line class="grid" x1="460" x2="860" y1="476" y2="476"/>
<polyline class="curl" points="460.0,406.4 547.5,407.5 635.0,422.6 722.5,422.2 810.0,422.8"/>
<circle class="prev" cx="460.0" cy="406.4" r="4.5" stroke-width="2"><title>7.25.4: 11.27</title></circle>
<text class="v" x="468.0" y="398.4" text-anchor="start">11.27</text>
<text class="m" x="460.0" y="492" text-anchor="middle">7.25.4</text>
<circle class="prev" cx="547.5" cy="407.5" r="4.5" stroke-width="2"><title>7.25.5: 11.09</title></circle>
<text class="v" x="555.5" y="399.5" text-anchor="start">11.09</text>
<text class="m" x="547.5" y="492" text-anchor="middle">7.25.5</text>
<circle class="prev" cx="635.0" cy="422.6" r="4.5" stroke-width="2"><title>7.25.20: 8.65</title></circle>
<text class="v" x="643.0" y="414.6" text-anchor="start">8.65</text>
<text class="m" x="635.0" y="492" text-anchor="middle">7.25.20</text>
<circle class="prev" cx="722.5" cy="422.2" r="4.5" stroke-width="2"><title>7.25.21: 8.71</title></circle>
<text class="v" x="730.5" y="414.2" text-anchor="start">8.71</text>
<text class="m" x="722.5" y="492" text-anchor="middle">7.25.21</text>
<circle class="cur" cx="810.0" cy="422.8" r="4.5" stroke-width="2"><title>7.25.22: 8.63</title></circle>
<text class="v" x="818.0" y="426.8" text-anchor="start">8.63</text>
<text class="m" x="810.0" y="492" text-anchor="middle">7.25.22</text>
<text class="l" x="20" y="530">Open 40 treedbs, same schema (s)</text>
<line class="grid" x1="30" x2="430" y1="626" y2="626"/>
<polyline class="curl" points="30.0,556.4 117.5,601.5 205.0,614.0 292.5,613.1 380.0,613.4"/>
<circle class="prev" cx="30.0" cy="556.4" r="4.5" stroke-width="2"><title>7.25.4: 1.84</title></circle>
<text class="v" x="38.0" y="548.4" text-anchor="start">1.84</text>
<text class="m" x="30.0" y="642" text-anchor="middle">7.25.4</text>
<circle class="prev" cx="117.5" cy="601.5" r="4.5" stroke-width="2"><title>7.25.5: 0.649</title></circle>
<text class="v" x="125.5" y="593.5" text-anchor="start">0.649</text>
<text class="m" x="117.5" y="642" text-anchor="middle">7.25.5</text>
<circle class="prev" cx="205.0" cy="614.0" r="4.5" stroke-width="2"><title>7.25.20: 0.318</title></circle>
<text class="v" x="213.0" y="606.0" text-anchor="start">0.318</text>
<text class="m" x="205.0" y="642" text-anchor="middle">7.25.20</text>
<circle class="prev" cx="292.5" cy="613.1" r="4.5" stroke-width="2"><title>7.25.21: 0.340</title></circle>
<text class="v" x="300.5" y="605.1" text-anchor="start">0.340</text>
<text class="m" x="292.5" y="642" text-anchor="middle">7.25.21</text>
<circle class="cur" cx="380.0" cy="613.4" r="4.5" stroke-width="2"><title>7.25.22: 0.333</title></circle>
<text class="v" x="388.0" y="617.4" text-anchor="start">0.333</text>
<text class="m" x="380.0" y="642" text-anchor="middle">7.25.22</text>
<text class="l" x="450" y="530">Agent audit record (ns)</text>
<line class="grid" x1="460" x2="860" y1="626" y2="626"/>
<polyline class="curl" points="460.0,556.4 547.5,619.8 635.0,619.6 722.5,619.3 810.0,619.6"/>
<circle class="prev" cx="460.0" cy="556.4" r="4.5" stroke-width="2"><title>7.25.4: 6,194</title></circle>
<text class="v" x="468.0" y="548.4" text-anchor="start">6,194</text>
<text class="m" x="460.0" y="642" text-anchor="middle">7.25.4</text>
<circle class="prev" cx="547.5" cy="619.8" r="4.5" stroke-width="2"><title>7.25.5: 554</title></circle>
<text class="v" x="555.5" y="611.8" text-anchor="start">554</text>
<text class="m" x="547.5" y="642" text-anchor="middle">7.25.5</text>
<circle class="prev" cx="635.0" cy="619.6" r="4.5" stroke-width="2"><title>7.25.20: 572.1</title></circle>
<text class="v" x="643.0" y="611.6" text-anchor="start">572.1</text>
<text class="m" x="635.0" y="642" text-anchor="middle">7.25.20</text>
<circle class="prev" cx="722.5" cy="619.3" r="4.5" stroke-width="2"><title>7.25.21: 592.5</title></circle>
<text class="v" x="730.5" y="611.3" text-anchor="start">592.5</text>
<text class="m" x="722.5" y="642" text-anchor="middle">7.25.21</text>
<circle class="cur" cx="810.0" cy="619.6" r="4.5" stroke-width="2"><title>7.25.22: 567.9</title></circle>
<text class="v" x="818.0" y="623.6" text-anchor="start">567.9</text>
<text class="m" x="810.0" y="642" text-anchor="middle">7.25.22</text>
<text class="l" x="20" y="680">Event loop echo (K msg/s)</text>
<line class="grid" x1="30" x2="430" y1="776" y2="776"/>
<polyline class="curl" points="30.0,706.4 117.5,707.2 205.0,707.4 292.5,708.8 380.0,707.2"/>
<circle class="prev" cx="30.0" cy="706.4" r="4.5" stroke-width="2"><title>7.25.4: 152.2</title></circle>
<text class="v" x="38.0" y="698.4" text-anchor="start">152.2</text>
<text class="m" x="30.0" y="792" text-anchor="middle">7.25.4</text>
<circle class="prev" cx="117.5" cy="707.2" r="4.5" stroke-width="2"><title>7.25.5: 150.5</title></circle>
<text class="v" x="125.5" y="699.2" text-anchor="start">150.5</text>
<text class="m" x="117.5" y="792" text-anchor="middle">7.25.5</text>
<circle class="prev" cx="205.0" cy="707.4" r="4.5" stroke-width="2"><title>7.25.20: 150.1</title></circle>
<text class="v" x="213.0" y="699.4" text-anchor="start">150.1</text>
<text class="m" x="205.0" y="792" text-anchor="middle">7.25.20</text>
<circle class="prev" cx="292.5" cy="708.8" r="4.5" stroke-width="2"><title>7.25.21: 147.1</title></circle>
<text class="v" x="300.5" y="700.8" text-anchor="start">147.1</text>
<text class="m" x="292.5" y="792" text-anchor="middle">7.25.21</text>
<circle class="cur" cx="380.0" cy="707.2" r="4.5" stroke-width="2"><title>7.25.22: 150.5</title></circle>
<text class="v" x="388.0" y="711.2" text-anchor="start">150.5</text>
<text class="m" x="380.0" y="792" text-anchor="middle">7.25.22</text>
<text class="l" x="450" y="680">gobj TCP echo (round trips/s)</text>
<line class="grid" x1="460" x2="860" y1="776" y2="776"/>
<polyline class="curl" points="460.0,708.2 547.5,707.1 635.0,709.1 722.5,706.4 810.0,708.9"/>
<circle class="prev" cx="460.0" cy="708.2" r="4.5" stroke-width="2"><title>7.25.4: 38,706</title></circle>
<text class="v" x="468.0" y="700.2" text-anchor="start">38,706</text>
<text class="m" x="460.0" y="792" text-anchor="middle">7.25.4</text>
<circle class="prev" cx="547.5" cy="707.1" r="4.5" stroke-width="2"><title>7.25.5: 39,344</title></circle>
<text class="v" x="555.5" y="699.1" text-anchor="start">39,344</text>
<text class="m" x="547.5" y="792" text-anchor="middle">7.25.5</text>
<circle class="prev" cx="635.0" cy="709.1" r="4.5" stroke-width="2"><title>7.25.20: 38,191</title></circle>
<text class="v" x="643.0" y="701.1" text-anchor="start">38,191</text>
<text class="m" x="635.0" y="792" text-anchor="middle">7.25.20</text>
<circle class="prev" cx="722.5" cy="706.4" r="4.5" stroke-width="2"><title>7.25.21: 39,715</title></circle>
<text class="v" x="730.5" y="698.4" text-anchor="start">39,715</text>
<text class="m" x="722.5" y="792" text-anchor="middle">7.25.21</text>
<circle class="cur" cx="810.0" cy="708.9" r="4.5" stroke-width="2"><title>7.25.22: 38,292</title></circle>
<text class="v" x="818.0" y="712.9" text-anchor="start">38,292</text>
<text class="m" x="810.0" y="792" text-anchor="middle">7.25.22</text>
</svg>
